<mxfile host="app.diagrams.net" modified="2023-03-25T20:13:14.691Z" agent="Mozilla/5.0 (Windows NT 10.0; Win64; x64) AppleWebKit/537.36 (KHTML, like Gecko) Chrome/111.0.0.0 Safari/537.36" etag="wo1qxxmKMPRFVqFdaXvl" version="21.1.1" type="google" pages="6">
  <diagram id="Agqj-nwfEDbLTlWO4EUa" name="Registrar Usuario">
    <mxGraphModel grid="0" page="1" gridSize="10" guides="1" tooltips="1" connect="1" arrows="1" fold="1" pageScale="1" pageWidth="827" pageHeight="1169" math="0" shadow="0">
      <root>
        <mxCell id="0" />
        <mxCell id="1" parent="0" />
        <mxCell id="l2YwU3InrbA9YrUUrIAI-30" value="" style="rounded=0;whiteSpace=wrap;html=1;shadow=0;" vertex="1" parent="1">
          <mxGeometry x="92" y="51" width="590" height="430" as="geometry" />
        </mxCell>
        <mxCell id="l2YwU3InrbA9YrUUrIAI-1" value="Administrador" style="shape=umlActor;verticalLabelPosition=bottom;verticalAlign=top;html=1;outlineConnect=0;shadow=1;" vertex="1" parent="1">
          <mxGeometry x="32" y="201" width="30" height="60" as="geometry" />
        </mxCell>
        <mxCell id="l2YwU3InrbA9YrUUrIAI-4" value="&lt;font style=&quot;vertical-align: inherit&quot;&gt;&lt;font style=&quot;vertical-align: inherit&quot;&gt;Sistema&lt;/font&gt;&lt;/font&gt;" style="rounded=0;whiteSpace=wrap;html=1;shadow=1;" vertex="1" parent="1">
          <mxGeometry x="700" y="201" width="110" height="50" as="geometry" />
        </mxCell>
        <mxCell id="l2YwU3InrbA9YrUUrIAI-5" value="&lt;font style=&quot;vertical-align: inherit&quot;&gt;&lt;font style=&quot;vertical-align: inherit&quot;&gt;Solicitar&amp;nbsp;&lt;br&gt;Datos&lt;br&gt;&lt;/font&gt;&lt;/font&gt;" style="ellipse;whiteSpace=wrap;html=1;strokeColor=none;strokeWidth=2;shadow=1;fillColor=#00D4D4;" vertex="1" parent="1">
          <mxGeometry x="312" y="201" width="110" height="50" as="geometry" />
        </mxCell>
        <mxCell id="l2YwU3InrbA9YrUUrIAI-7" value="&lt;font style=&quot;vertical-align: inherit&quot;&gt;&lt;font style=&quot;vertical-align: inherit&quot;&gt;Numero de&lt;br&gt;celular/telefono&lt;br&gt;&lt;/font&gt;&lt;/font&gt;" style="ellipse;whiteSpace=wrap;html=1;strokeColor=none;strokeWidth=2;shadow=1;fillColor=#00D4D4;" vertex="1" parent="1">
          <mxGeometry x="478" y="351" width="110" height="50" as="geometry" />
        </mxCell>
        <mxCell id="l2YwU3InrbA9YrUUrIAI-8" value="&lt;font style=&quot;vertical-align: inherit&quot;&gt;&lt;font style=&quot;vertical-align: inherit&quot;&gt;Correo&lt;br&gt;&lt;/font&gt;&lt;/font&gt;" style="ellipse;whiteSpace=wrap;html=1;strokeColor=none;strokeWidth=2;shadow=1;fillColor=#00D4D4;" vertex="1" parent="1">
          <mxGeometry x="351" y="377" width="110" height="50" as="geometry" />
        </mxCell>
        <mxCell id="l2YwU3InrbA9YrUUrIAI-9" value="&lt;font style=&quot;vertical-align: inherit&quot;&gt;&lt;font style=&quot;vertical-align: inherit&quot;&gt;Apellidos&lt;br&gt;&lt;/font&gt;&lt;/font&gt;" style="ellipse;whiteSpace=wrap;html=1;strokeColor=none;strokeWidth=2;shadow=1;fillColor=#00D4D4;" vertex="1" parent="1">
          <mxGeometry x="206" y="359" width="110" height="50" as="geometry" />
        </mxCell>
        <mxCell id="l2YwU3InrbA9YrUUrIAI-10" value="Nombres" style="ellipse;whiteSpace=wrap;html=1;shadow=1;strokeColor=none;strokeWidth=2;fillColor=#00D4D4;" vertex="1" parent="1">
          <mxGeometry x="104" y="301" width="110" height="50" as="geometry" />
        </mxCell>
        <mxCell id="l2YwU3InrbA9YrUUrIAI-14" value="&lt;font style=&quot;vertical-align: inherit&quot;&gt;&lt;font style=&quot;vertical-align: inherit&quot;&gt;Ingresar datos&lt;br&gt;&lt;/font&gt;&lt;/font&gt;" style="ellipse;whiteSpace=wrap;html=1;strokeColor=none;strokeWidth=2;shadow=1;fillColor=#00D4D4;" vertex="1" parent="1">
          <mxGeometry x="137" y="201" width="110" height="50" as="geometry" />
        </mxCell>
        <mxCell id="l2YwU3InrbA9YrUUrIAI-15" value="&lt;font style=&quot;vertical-align: inherit&quot;&gt;&lt;font style=&quot;vertical-align: inherit&quot;&gt;Registrar&amp;nbsp;&lt;br&gt;Usuario&lt;br&gt;&lt;/font&gt;&lt;/font&gt;" style="ellipse;whiteSpace=wrap;html=1;strokeColor=none;strokeWidth=2;shadow=1;fillColor=#00D4D4;" vertex="1" parent="1">
          <mxGeometry x="497" y="111" width="110" height="50" as="geometry" />
        </mxCell>
        <mxCell id="l2YwU3InrbA9YrUUrIAI-17" value="&lt;font style=&quot;vertical-align: inherit&quot;&gt;&lt;font style=&quot;vertical-align: inherit&quot;&gt;Guardar&amp;nbsp;&lt;br&gt;datos&lt;br&gt;&lt;/font&gt;&lt;/font&gt;" style="ellipse;whiteSpace=wrap;html=1;strokeColor=none;strokeWidth=2;shadow=1;fillColor=#00D4D4;" vertex="1" parent="1">
          <mxGeometry x="274" y="111" width="110" height="50" as="geometry" />
        </mxCell>
        <mxCell id="l2YwU3InrbA9YrUUrIAI-19" value="" style="endArrow=none;html=1;rounded=0;exitX=1;exitY=0.5;exitDx=0;exitDy=0;fillColor=#FF00FF;strokeColor=#000000;shadow=0;strokeWidth=2;entryX=0;entryY=0.5;entryDx=0;entryDy=0;" edge="1" parent="1" source="l2YwU3InrbA9YrUUrIAI-5" target="l2YwU3InrbA9YrUUrIAI-4">
          <mxGeometry width="50" height="50" relative="1" as="geometry">
            <mxPoint x="382" y="271" as="sourcePoint" />
            <mxPoint x="690" y="226" as="targetPoint" />
          </mxGeometry>
        </mxCell>
        <mxCell id="l2YwU3InrbA9YrUUrIAI-20" value="" style="endArrow=none;html=1;rounded=0;entryX=0;entryY=0.5;entryDx=0;entryDy=0;fillColor=#FF00FF;strokeColor=#000000;shadow=0;strokeWidth=2;" edge="1" parent="1" target="l2YwU3InrbA9YrUUrIAI-14">
          <mxGeometry width="50" height="50" relative="1" as="geometry">
            <mxPoint x="67" y="226" as="sourcePoint" />
            <mxPoint x="432" y="221" as="targetPoint" />
          </mxGeometry>
        </mxCell>
        <mxCell id="l2YwU3InrbA9YrUUrIAI-22" value="" style="endArrow=none;html=1;rounded=0;exitX=1;exitY=0.5;exitDx=0;exitDy=0;fillColor=#FF00FF;strokeColor=#000000;shadow=0;strokeWidth=2;entryX=0;entryY=0;entryDx=0;entryDy=0;" edge="1" parent="1" source="l2YwU3InrbA9YrUUrIAI-15" target="l2YwU3InrbA9YrUUrIAI-4">
          <mxGeometry width="50" height="50" relative="1" as="geometry">
            <mxPoint x="382" y="271" as="sourcePoint" />
            <mxPoint x="692" y="211" as="targetPoint" />
          </mxGeometry>
        </mxCell>
        <mxCell id="l2YwU3InrbA9YrUUrIAI-24" value="" style="endArrow=classic;html=1;rounded=0;exitX=0.5;exitY=0;exitDx=0;exitDy=0;dashed=1;endFill=1;fillColor=#FF00FF;strokeColor=#000000;shadow=0;strokeWidth=2;entryX=0;entryY=0.5;entryDx=0;entryDy=0;" edge="1" parent="1" source="l2YwU3InrbA9YrUUrIAI-14" target="l2YwU3InrbA9YrUUrIAI-17">
          <mxGeometry width="50" height="50" relative="1" as="geometry">
            <mxPoint x="382" y="271" as="sourcePoint" />
            <mxPoint x="432" y="221" as="targetPoint" />
          </mxGeometry>
        </mxCell>
        <mxCell id="l2YwU3InrbA9YrUUrIAI-25" value="" style="endArrow=classic;html=1;rounded=0;exitX=0;exitY=1;exitDx=0;exitDy=0;entryX=1;entryY=0;entryDx=0;entryDy=0;dashed=1;endFill=1;fillColor=#FF00FF;strokeColor=#000000;shadow=0;strokeWidth=2;" edge="1" parent="1" source="l2YwU3InrbA9YrUUrIAI-5" target="l2YwU3InrbA9YrUUrIAI-10">
          <mxGeometry width="50" height="50" relative="1" as="geometry">
            <mxPoint x="282" y="116" as="sourcePoint" />
            <mxPoint x="352" y="116" as="targetPoint" />
          </mxGeometry>
        </mxCell>
        <mxCell id="l2YwU3InrbA9YrUUrIAI-26" value="" style="endArrow=classic;html=1;rounded=0;exitX=0.336;exitY=0.98;exitDx=0;exitDy=0;entryX=0.755;entryY=0.1;entryDx=0;entryDy=0;dashed=1;endFill=1;entryPerimeter=0;exitPerimeter=0;fillColor=#FF00FF;strokeColor=#000000;shadow=0;strokeWidth=2;" edge="1" parent="1" source="l2YwU3InrbA9YrUUrIAI-5" target="l2YwU3InrbA9YrUUrIAI-9">
          <mxGeometry width="50" height="50" relative="1" as="geometry">
            <mxPoint x="368.1091270347399" y="258.6776695296636" as="sourcePoint" />
            <mxPoint x="265.8908729652601" y="348.3223304703363" as="targetPoint" />
          </mxGeometry>
        </mxCell>
        <mxCell id="l2YwU3InrbA9YrUUrIAI-27" value="" style="endArrow=classic;html=1;rounded=0;entryX=0.5;entryY=0;entryDx=0;entryDy=0;dashed=1;endFill=1;fillColor=#FF00FF;strokeColor=#000000;shadow=0;strokeWidth=2;" edge="1" parent="1" target="l2YwU3InrbA9YrUUrIAI-8">
          <mxGeometry width="50" height="50" relative="1" as="geometry">
            <mxPoint x="372" y="261" as="sourcePoint" />
            <mxPoint x="325.04999999999995" y="406" as="targetPoint" />
          </mxGeometry>
        </mxCell>
        <mxCell id="l2YwU3InrbA9YrUUrIAI-28" value="" style="endArrow=classic;html=1;rounded=0;exitX=0.691;exitY=1;exitDx=0;exitDy=0;entryX=0.345;entryY=-0.04;entryDx=0;entryDy=0;dashed=1;endFill=1;entryPerimeter=0;exitPerimeter=0;fillColor=#FF00FF;strokeColor=#000000;shadow=0;strokeWidth=2;" edge="1" parent="1" source="l2YwU3InrbA9YrUUrIAI-5" target="l2YwU3InrbA9YrUUrIAI-7">
          <mxGeometry width="50" height="50" relative="1" as="geometry">
            <mxPoint x="398.96000000000004" y="275" as="sourcePoint" />
            <mxPoint x="335.04999999999995" y="416" as="targetPoint" />
          </mxGeometry>
        </mxCell>
        <mxCell id="l2YwU3InrbA9YrUUrIAI-31" value="&amp;lt;&amp;lt;Incluye&amp;gt;&amp;gt;" style="text;html=1;strokeColor=none;fillColor=none;align=center;verticalAlign=middle;whiteSpace=wrap;rounded=0;shadow=0;" vertex="1" parent="1">
          <mxGeometry x="171" y="141" width="60" height="30" as="geometry" />
        </mxCell>
        <mxCell id="l2YwU3InrbA9YrUUrIAI-32" value="&amp;lt;&amp;lt;Incluye&amp;gt;&amp;gt;" style="text;html=1;strokeColor=none;fillColor=none;align=center;verticalAlign=middle;whiteSpace=wrap;rounded=0;shadow=0;" vertex="1" parent="1">
          <mxGeometry x="204" y="251" width="60" height="30" as="geometry" />
        </mxCell>
        <mxCell id="l2YwU3InrbA9YrUUrIAI-33" value="&amp;lt;&amp;lt;Incluye&amp;gt;&amp;gt;" style="text;html=1;strokeColor=none;fillColor=none;align=center;verticalAlign=middle;whiteSpace=wrap;rounded=0;shadow=0;" vertex="1" parent="1">
          <mxGeometry x="229" y="301" width="60" height="30" as="geometry" />
        </mxCell>
        <mxCell id="l2YwU3InrbA9YrUUrIAI-34" value="&amp;lt;&amp;lt;Incluye&amp;gt;&amp;gt;" style="text;html=1;strokeColor=none;fillColor=none;align=center;verticalAlign=middle;whiteSpace=wrap;rounded=0;shadow=0;" vertex="1" parent="1">
          <mxGeometry x="312" y="321" width="60" height="30" as="geometry" />
        </mxCell>
        <mxCell id="l2YwU3InrbA9YrUUrIAI-35" value="&amp;lt;&amp;lt;Incluye&amp;gt;&amp;gt;" style="text;html=1;strokeColor=none;fillColor=none;align=center;verticalAlign=middle;whiteSpace=wrap;rounded=0;shadow=0;" vertex="1" parent="1">
          <mxGeometry x="406" y="313" width="60" height="30" as="geometry" />
        </mxCell>
        <mxCell id="FpzeBX36onFjLR5HHhKd-1" value="&lt;font style=&quot;vertical-align: inherit&quot;&gt;&lt;font style=&quot;vertical-align: inherit&quot;&gt;Seleccionar&lt;br&gt;rol&lt;br&gt;&lt;/font&gt;&lt;/font&gt;" style="ellipse;whiteSpace=wrap;html=1;strokeColor=none;strokeWidth=2;shadow=1;fillColor=#00D4D4;" vertex="1" parent="1">
          <mxGeometry x="562" y="291" width="110" height="50" as="geometry" />
        </mxCell>
        <mxCell id="FpzeBX36onFjLR5HHhKd-2" value="" style="endArrow=classic;html=1;rounded=0;exitX=0.982;exitY=0.72;exitDx=0;exitDy=0;entryX=0.082;entryY=0.22;entryDx=0;entryDy=0;dashed=1;endFill=1;exitPerimeter=0;fillColor=#FF00FF;strokeColor=#000000;shadow=0;strokeWidth=2;entryPerimeter=0;" edge="1" parent="1" source="l2YwU3InrbA9YrUUrIAI-5" target="FpzeBX36onFjLR5HHhKd-1">
          <mxGeometry width="50" height="50" relative="1" as="geometry">
            <mxPoint x="425.97" y="257" as="sourcePoint" />
            <mxPoint x="568.1091270347399" y="378.3223304703364" as="targetPoint" />
          </mxGeometry>
        </mxCell>
        <mxCell id="FpzeBX36onFjLR5HHhKd-3" value="&amp;lt;&amp;lt;Incluye&amp;gt;&amp;gt;" style="text;html=1;strokeColor=none;fillColor=none;align=center;verticalAlign=middle;whiteSpace=wrap;rounded=0;shadow=0;" vertex="1" parent="1">
          <mxGeometry x="522" y="256" width="60" height="30" as="geometry" />
        </mxCell>
        <mxCell id="ZOocPAh5h1mGf9UbH52z-3" value="" style="endArrow=classic;html=1;rounded=0;exitX=1;exitY=0.5;exitDx=0;exitDy=0;entryX=0;entryY=0.5;entryDx=0;entryDy=0;dashed=1;endFill=1;fillColor=#FF00FF;strokeColor=#000000;shadow=0;strokeWidth=2;" edge="1" parent="1" source="l2YwU3InrbA9YrUUrIAI-17" target="l2YwU3InrbA9YrUUrIAI-15">
          <mxGeometry width="50" height="50" relative="1" as="geometry">
            <mxPoint x="453" y="127" as="sourcePoint" />
            <mxPoint x="602" y="187" as="targetPoint" />
          </mxGeometry>
        </mxCell>
        <mxCell id="ZOocPAh5h1mGf9UbH52z-4" value="&amp;lt;&amp;lt;Incluye&amp;gt;&amp;gt;" style="text;html=1;strokeColor=none;fillColor=none;align=center;verticalAlign=middle;whiteSpace=wrap;rounded=0;shadow=0;" vertex="1" parent="1">
          <mxGeometry x="413" y="111" width="60" height="30" as="geometry" />
        </mxCell>
        <mxCell id="9OYt_mr7H0nDcnOsv2r_-3" value="" style="endArrow=none;html=1;rounded=0;fillColor=#FF00FF;strokeColor=#000000;shadow=0;strokeWidth=2;exitX=1;exitY=0.5;exitDx=0;exitDy=0;entryX=0;entryY=0.5;entryDx=0;entryDy=0;entryPerimeter=0;" edge="1" parent="1" source="l2YwU3InrbA9YrUUrIAI-14" target="l2YwU3InrbA9YrUUrIAI-5">
          <mxGeometry width="50" height="50" relative="1" as="geometry">
            <mxPoint x="237" y="225.5" as="sourcePoint" />
            <mxPoint x="311" y="226" as="targetPoint" />
          </mxGeometry>
        </mxCell>
      </root>
    </mxGraphModel>
  </diagram>
  <diagram id="zIJt1JNlbTPPiZmyh4_C" name="Iniciar sesión">
    <mxGraphModel grid="0" page="1" gridSize="10" guides="1" tooltips="1" connect="1" arrows="1" fold="1" pageScale="1" pageWidth="827" pageHeight="1169" math="0" shadow="0">
      <root>
        <mxCell id="9ArhAmrGaB53VkPVyUDl-0" />
        <mxCell id="9ArhAmrGaB53VkPVyUDl-1" parent="9ArhAmrGaB53VkPVyUDl-0" />
        <mxCell id="OuaNo7Gtbf5asv4K1yMn-4" value="" style="rounded=0;whiteSpace=wrap;html=1;shadow=0;strokeColor=#000000;strokeWidth=1;fillColor=#FFFFFF;" vertex="1" parent="9ArhAmrGaB53VkPVyUDl-1">
          <mxGeometry x="228" y="75" width="330" height="370" as="geometry" />
        </mxCell>
        <mxCell id="9ArhAmrGaB53VkPVyUDl-2" value="Usuario" style="shape=umlActor;verticalLabelPosition=bottom;verticalAlign=top;html=1;outlineConnect=0;shadow=1;strokeColor=#000000;strokeWidth=1;fillColor=#FFFFFF;" vertex="1" parent="9ArhAmrGaB53VkPVyUDl-1">
          <mxGeometry x="118" y="231" width="30" height="60" as="geometry" />
        </mxCell>
        <mxCell id="RJx8X9FEkKinYkduNgGS-0" value="&lt;font style=&quot;vertical-align: inherit&quot;&gt;&lt;font style=&quot;vertical-align: inherit&quot;&gt;Sistema&lt;/font&gt;&lt;/font&gt;" style="rounded=0;whiteSpace=wrap;html=1;shadow=1;strokeColor=#000000;" vertex="1" parent="9ArhAmrGaB53VkPVyUDl-1">
          <mxGeometry x="583" y="236" width="110" height="50" as="geometry" />
        </mxCell>
        <mxCell id="Mmp1wC83HVb-XIjxmfV3-1" value="Ingresar&amp;nbsp;&lt;br&gt;contraseña" style="ellipse;whiteSpace=wrap;html=1;shadow=1;strokeColor=none;strokeWidth=2;fillColor=#00D4D4;" vertex="1" parent="9ArhAmrGaB53VkPVyUDl-1">
          <mxGeometry x="258" y="102" width="110" height="50" as="geometry" />
        </mxCell>
        <mxCell id="Mmp1wC83HVb-XIjxmfV3-2" value="Recuperar&amp;nbsp;&lt;br&gt;contraseña" style="ellipse;whiteSpace=wrap;html=1;shadow=1;strokeColor=none;strokeWidth=2;fillColor=#00D4D4;" vertex="1" parent="9ArhAmrGaB53VkPVyUDl-1">
          <mxGeometry x="254" y="235" width="110" height="50" as="geometry" />
        </mxCell>
        <mxCell id="Mmp1wC83HVb-XIjxmfV3-3" value="Contraseña&lt;br&gt;nueva" style="ellipse;whiteSpace=wrap;html=1;shadow=1;strokeColor=none;strokeWidth=2;fillColor=#00D4D4;" vertex="1" parent="9ArhAmrGaB53VkPVyUDl-1">
          <mxGeometry x="252" y="368" width="110" height="50" as="geometry" />
        </mxCell>
        <mxCell id="Tf2NiCZWbG52lHXRAj1z-3" value="" style="endArrow=none;html=1;rounded=0;fillColor=#FF00FF;strokeColor=#000000;shadow=0;strokeWidth=2;entryX=0;entryY=0.5;entryDx=0;entryDy=0;" edge="1" parent="9ArhAmrGaB53VkPVyUDl-1" target="Mmp1wC83HVb-XIjxmfV3-2">
          <mxGeometry width="50" height="50" relative="1" as="geometry">
            <mxPoint x="160" y="260" as="sourcePoint" />
            <mxPoint x="248" y="290" as="targetPoint" />
          </mxGeometry>
        </mxCell>
        <mxCell id="Tf2NiCZWbG52lHXRAj1z-4" value="" style="endArrow=none;html=1;rounded=0;fillColor=#FF00FF;strokeColor=#000000;shadow=0;strokeWidth=2;entryX=0;entryY=0.5;entryDx=0;entryDy=0;" edge="1" parent="9ArhAmrGaB53VkPVyUDl-1" target="Mmp1wC83HVb-XIjxmfV3-3">
          <mxGeometry width="50" height="50" relative="1" as="geometry">
            <mxPoint x="158" y="290" as="sourcePoint" />
            <mxPoint x="248" y="350" as="targetPoint" />
          </mxGeometry>
        </mxCell>
        <mxCell id="yK87okqspqYnbKMPcah4-0" value="Permitir&amp;nbsp;&lt;br&gt;acceso" style="ellipse;whiteSpace=wrap;html=1;shadow=1;strokeColor=none;strokeWidth=2;fillColor=#00D4D4;" vertex="1" parent="9ArhAmrGaB53VkPVyUDl-1">
          <mxGeometry x="426" y="236" width="110" height="50" as="geometry" />
        </mxCell>
        <mxCell id="yK87okqspqYnbKMPcah4-1" value="" style="endArrow=none;html=1;rounded=0;fillColor=#FF00FF;strokeColor=#000000;shadow=0;strokeWidth=2;exitX=1;exitY=0.5;exitDx=0;exitDy=0;entryX=0;entryY=0.5;entryDx=0;entryDy=0;" edge="1" parent="9ArhAmrGaB53VkPVyUDl-1" source="yK87okqspqYnbKMPcah4-0" target="RJx8X9FEkKinYkduNgGS-0">
          <mxGeometry width="50" height="50" relative="1" as="geometry">
            <mxPoint x="528" y="260" as="sourcePoint" />
            <mxPoint x="608" y="260" as="targetPoint" />
          </mxGeometry>
        </mxCell>
        <mxCell id="6tB1HY2lZBR0POrTJr1p-0" value="Recibir&amp;nbsp;&lt;br&gt;Datos" style="ellipse;whiteSpace=wrap;html=1;shadow=1;strokeColor=none;strokeWidth=2;fillColor=#00D4D4;" vertex="1" parent="9ArhAmrGaB53VkPVyUDl-1">
          <mxGeometry x="426" y="368" width="110" height="50" as="geometry" />
        </mxCell>
        <mxCell id="Ekcisom8oRc98MMyFf-G-2" value="" style="endArrow=none;html=1;rounded=0;fillColor=#FF00FF;strokeColor=#000000;shadow=0;strokeWidth=2;entryX=0;entryY=0.5;entryDx=0;entryDy=0;" edge="1" parent="9ArhAmrGaB53VkPVyUDl-1" target="Mmp1wC83HVb-XIjxmfV3-1">
          <mxGeometry width="50" height="50" relative="1" as="geometry">
            <mxPoint x="155" y="228" as="sourcePoint" />
            <mxPoint x="268" y="120" as="targetPoint" />
          </mxGeometry>
        </mxCell>
        <mxCell id="bK7CFFtC3XoDCbjm4tIc-0" value="" style="endArrow=classic;html=1;rounded=0;exitX=1;exitY=0.5;exitDx=0;exitDy=0;entryX=0;entryY=0.5;entryDx=0;entryDy=0;dashed=1;endFill=1;fillColor=#FF00FF;strokeColor=#000000;shadow=0;strokeWidth=2;" edge="1" parent="9ArhAmrGaB53VkPVyUDl-1" source="Mmp1wC83HVb-XIjxmfV3-3" target="6tB1HY2lZBR0POrTJr1p-0">
          <mxGeometry width="50" height="50" relative="1" as="geometry">
            <mxPoint x="336" y="243" as="sourcePoint" />
            <mxPoint x="206" y="307" as="targetPoint" />
          </mxGeometry>
        </mxCell>
        <mxCell id="bK7CFFtC3XoDCbjm4tIc-1" value="" style="endArrow=classic;html=1;rounded=0;exitX=0.5;exitY=0;exitDx=0;exitDy=0;entryX=0.5;entryY=1;entryDx=0;entryDy=0;dashed=1;endFill=1;fillColor=#FF00FF;strokeColor=#000000;shadow=0;strokeWidth=2;" edge="1" parent="9ArhAmrGaB53VkPVyUDl-1" source="6tB1HY2lZBR0POrTJr1p-0" target="yK87okqspqYnbKMPcah4-0">
          <mxGeometry width="50" height="50" relative="1" as="geometry">
            <mxPoint x="346" y="253" as="sourcePoint" />
            <mxPoint x="216" y="317" as="targetPoint" />
          </mxGeometry>
        </mxCell>
        <mxCell id="0OscKHF35bC8e7SRIote-0" value="&amp;lt;&amp;lt;Incluye&amp;gt;&amp;gt;" style="text;html=1;strokeColor=none;fillColor=none;align=center;verticalAlign=middle;whiteSpace=wrap;rounded=0;shadow=0;" vertex="1" parent="9ArhAmrGaB53VkPVyUDl-1">
          <mxGeometry x="416" y="315" width="60" height="30" as="geometry" />
        </mxCell>
        <mxCell id="0OscKHF35bC8e7SRIote-2" value="&amp;lt;&amp;lt;Incluye&amp;gt;&amp;gt;" style="text;html=1;strokeColor=none;fillColor=none;align=center;verticalAlign=middle;whiteSpace=wrap;rounded=0;shadow=0;" vertex="1" parent="9ArhAmrGaB53VkPVyUDl-1">
          <mxGeometry x="362" y="391" width="60" height="30" as="geometry" />
        </mxCell>
      </root>
    </mxGraphModel>
  </diagram>
  <diagram id="KQBaqHAWbbyrbkIPaxbt" name="Alumno">
    <mxGraphModel grid="0" page="1" gridSize="10" guides="1" tooltips="1" connect="1" arrows="1" fold="1" pageScale="1" pageWidth="827" pageHeight="1169" math="0" shadow="0">
      <root>
        <mxCell id="UtoBg2W8TH_hSux_-3zO-0" />
        <mxCell id="UtoBg2W8TH_hSux_-3zO-1" parent="UtoBg2W8TH_hSux_-3zO-0" />
        <mxCell id="1p0TUtQlw90kNY5aPF4k-0" value="" style="rounded=0;whiteSpace=wrap;html=1;shadow=0;strokeColor=#000000;strokeWidth=1;fillColor=#FFFFFF;" vertex="1" parent="UtoBg2W8TH_hSux_-3zO-1">
          <mxGeometry x="90" y="58" width="580" height="326" as="geometry" />
        </mxCell>
        <mxCell id="BONH5Hp-PgqreaVjL7BQ-0" value="&lt;font style=&quot;vertical-align: inherit&quot;&gt;&lt;font style=&quot;vertical-align: inherit&quot;&gt;&lt;font style=&quot;vertical-align: inherit&quot;&gt;&lt;font style=&quot;vertical-align: inherit&quot;&gt;&lt;font style=&quot;vertical-align: inherit&quot;&gt;&lt;font style=&quot;vertical-align: inherit&quot;&gt;Alumno&lt;/font&gt;&lt;/font&gt;&lt;/font&gt;&lt;/font&gt;&lt;/font&gt;&lt;/font&gt;" style="shape=umlActor;verticalLabelPosition=bottom;verticalAlign=top;html=1;outlineConnect=0;shadow=1;" vertex="1" parent="UtoBg2W8TH_hSux_-3zO-1">
          <mxGeometry x="17" y="200" width="30" height="60" as="geometry" />
        </mxCell>
        <mxCell id="2N0WZpeQOhHioKeOTaO9-0" value="&lt;font style=&quot;vertical-align: inherit&quot;&gt;&lt;font style=&quot;vertical-align: inherit&quot;&gt;Sistema&lt;/font&gt;&lt;/font&gt;" style="rounded=0;whiteSpace=wrap;html=1;shadow=1;" vertex="1" parent="UtoBg2W8TH_hSux_-3zO-1">
          <mxGeometry x="700" y="205" width="110" height="50" as="geometry" />
        </mxCell>
        <mxCell id="aWIfu0vF5Jdw0xv7IpQU-0" value="Asignaturas" style="ellipse;whiteSpace=wrap;html=1;shadow=1;strokeColor=none;strokeWidth=2;fillColor=#00D4D4;" vertex="1" parent="UtoBg2W8TH_hSux_-3zO-1">
          <mxGeometry x="325" y="155" width="110" height="50" as="geometry" />
        </mxCell>
        <mxCell id="Fw03x48T0wwUwcTbqw_S-0" value="Ingresar" style="ellipse;whiteSpace=wrap;html=1;shadow=1;strokeColor=none;strokeWidth=2;fillColor=#00D4D4;" vertex="1" parent="UtoBg2W8TH_hSux_-3zO-1">
          <mxGeometry x="137" y="85" width="110" height="50" as="geometry" />
        </mxCell>
        <mxCell id="Fw03x48T0wwUwcTbqw_S-4" value="Ver &lt;br&gt;notas" style="ellipse;whiteSpace=wrap;html=1;shadow=1;strokeColor=none;strokeWidth=2;fillColor=#00D4D4;" vertex="1" parent="UtoBg2W8TH_hSux_-3zO-1">
          <mxGeometry x="325" y="246" width="110" height="50" as="geometry" />
        </mxCell>
        <mxCell id="Fw03x48T0wwUwcTbqw_S-6" value="Seleccionar&lt;br&gt;apartado" style="ellipse;whiteSpace=wrap;html=1;shadow=1;strokeColor=none;strokeWidth=2;fillColor=#00D4D4;" vertex="1" parent="UtoBg2W8TH_hSux_-3zO-1">
          <mxGeometry x="124" y="210" width="110" height="50" as="geometry" />
        </mxCell>
        <mxCell id="npjBJgnPm1NRKgpIkxCj-0" value="" style="endArrow=none;html=1;rounded=0;fillColor=#FF00FF;strokeColor=#000000;shadow=0;strokeWidth=2;" edge="1" parent="UtoBg2W8TH_hSux_-3zO-1">
          <mxGeometry width="50" height="50" relative="1" as="geometry">
            <mxPoint x="51" y="197" as="sourcePoint" />
            <mxPoint x="140" y="120" as="targetPoint" />
          </mxGeometry>
        </mxCell>
        <mxCell id="npjBJgnPm1NRKgpIkxCj-1" value="" style="endArrow=none;html=1;rounded=0;fillColor=#FF00FF;strokeColor=#000000;shadow=0;strokeWidth=2;" edge="1" parent="UtoBg2W8TH_hSux_-3zO-1">
          <mxGeometry width="50" height="50" relative="1" as="geometry">
            <mxPoint x="640" y="229.5" as="sourcePoint" />
            <mxPoint x="700" y="230" as="targetPoint" />
          </mxGeometry>
        </mxCell>
        <mxCell id="Pq4gp_0p-lIfsVIGDbnl-4" value="Mostrar&lt;br&gt;Apartado" style="ellipse;whiteSpace=wrap;html=1;shadow=1;strokeColor=none;strokeWidth=2;fillColor=#00D4D4;" vertex="1" parent="UtoBg2W8TH_hSux_-3zO-1">
          <mxGeometry x="526" y="205" width="110" height="50" as="geometry" />
        </mxCell>
        <mxCell id="Pq4gp_0p-lIfsVIGDbnl-13" value="" style="endArrow=none;html=1;rounded=0;fillColor=#FF00FF;strokeColor=#000000;shadow=0;strokeWidth=2;entryX=-0.009;entryY=0.38;entryDx=0;entryDy=0;entryPerimeter=0;" edge="1" parent="UtoBg2W8TH_hSux_-3zO-1" target="Fw03x48T0wwUwcTbqw_S-6">
          <mxGeometry width="50" height="50" relative="1" as="geometry">
            <mxPoint x="52" y="229" as="sourcePoint" />
            <mxPoint x="120" y="229.5" as="targetPoint" />
          </mxGeometry>
        </mxCell>
        <mxCell id="dba4FshyU8qOy8YbWUj8-0" value="&amp;lt;&amp;lt;Incluye&amp;gt;&amp;gt;" style="text;html=1;strokeColor=none;fillColor=none;align=center;verticalAlign=middle;whiteSpace=wrap;rounded=0;shadow=0;" vertex="1" parent="UtoBg2W8TH_hSux_-3zO-1">
          <mxGeometry x="223" y="170" width="60" height="30" as="geometry" />
        </mxCell>
        <mxCell id="dba4FshyU8qOy8YbWUj8-2" value="&amp;lt;&amp;lt;Incluye&amp;gt;&amp;gt;" style="text;html=1;strokeColor=none;fillColor=none;align=center;verticalAlign=middle;whiteSpace=wrap;rounded=0;shadow=0;" vertex="1" parent="UtoBg2W8TH_hSux_-3zO-1">
          <mxGeometry x="236" y="260" width="60" height="30" as="geometry" />
        </mxCell>
        <mxCell id="dba4FshyU8qOy8YbWUj8-4" value="&amp;lt;&amp;lt;Incluye&amp;gt;&amp;gt;" style="text;html=1;strokeColor=none;fillColor=none;align=center;verticalAlign=middle;whiteSpace=wrap;rounded=0;shadow=0;" vertex="1" parent="UtoBg2W8TH_hSux_-3zO-1">
          <mxGeometry x="486" y="170" width="60" height="30" as="geometry" />
        </mxCell>
        <mxCell id="dba4FshyU8qOy8YbWUj8-6" value="&amp;lt;&amp;lt;Incluye&amp;gt;&amp;gt;" style="text;html=1;strokeColor=none;fillColor=none;align=center;verticalAlign=middle;whiteSpace=wrap;rounded=0;shadow=0;" vertex="1" parent="UtoBg2W8TH_hSux_-3zO-1">
          <mxGeometry x="476" y="252" width="60" height="30" as="geometry" />
        </mxCell>
        <mxCell id="kdS_ns-Of9Bjbtq5QPf1-0" value="" style="endArrow=classic;html=1;rounded=0;exitX=1;exitY=1;exitDx=0;exitDy=0;entryX=0;entryY=0.5;entryDx=0;entryDy=0;dashed=1;endFill=1;fillColor=#FF00FF;strokeColor=#000000;shadow=0;strokeWidth=2;" edge="1" parent="UtoBg2W8TH_hSux_-3zO-1" source="Fw03x48T0wwUwcTbqw_S-6" target="Fw03x48T0wwUwcTbqw_S-4">
          <mxGeometry width="50" height="50" relative="1" as="geometry">
            <mxPoint x="481" y="368" as="sourcePoint" />
            <mxPoint x="481" y="286" as="targetPoint" />
          </mxGeometry>
        </mxCell>
        <mxCell id="kdS_ns-Of9Bjbtq5QPf1-1" value="" style="endArrow=classic;html=1;rounded=0;exitX=1;exitY=0;exitDx=0;exitDy=0;entryX=0;entryY=0.5;entryDx=0;entryDy=0;dashed=1;endFill=1;fillColor=#FF00FF;strokeColor=#000000;shadow=0;strokeWidth=2;" edge="1" parent="UtoBg2W8TH_hSux_-3zO-1" source="Fw03x48T0wwUwcTbqw_S-6" target="aWIfu0vF5Jdw0xv7IpQU-0">
          <mxGeometry width="50" height="50" relative="1" as="geometry">
            <mxPoint x="491" y="378" as="sourcePoint" />
            <mxPoint x="491" y="296" as="targetPoint" />
          </mxGeometry>
        </mxCell>
        <mxCell id="kdS_ns-Of9Bjbtq5QPf1-2" value="" style="endArrow=classic;html=1;rounded=0;exitX=0;exitY=1;exitDx=0;exitDy=0;entryX=1;entryY=0.5;entryDx=0;entryDy=0;dashed=1;endFill=1;fillColor=#FF00FF;strokeColor=#000000;shadow=0;strokeWidth=2;" edge="1" parent="UtoBg2W8TH_hSux_-3zO-1" source="Pq4gp_0p-lIfsVIGDbnl-4" target="Fw03x48T0wwUwcTbqw_S-4">
          <mxGeometry width="50" height="50" relative="1" as="geometry">
            <mxPoint x="501" y="388" as="sourcePoint" />
            <mxPoint x="501" y="306" as="targetPoint" />
          </mxGeometry>
        </mxCell>
        <mxCell id="kdS_ns-Of9Bjbtq5QPf1-4" value="" style="endArrow=classic;html=1;rounded=0;exitX=0;exitY=0;exitDx=0;exitDy=0;entryX=1;entryY=0.5;entryDx=0;entryDy=0;dashed=1;endFill=1;fillColor=#FF00FF;strokeColor=#000000;shadow=0;strokeWidth=2;" edge="1" parent="UtoBg2W8TH_hSux_-3zO-1" source="Pq4gp_0p-lIfsVIGDbnl-4" target="aWIfu0vF5Jdw0xv7IpQU-0">
          <mxGeometry width="50" height="50" relative="1" as="geometry">
            <mxPoint x="511" y="398" as="sourcePoint" />
            <mxPoint x="511" y="316" as="targetPoint" />
          </mxGeometry>
        </mxCell>
      </root>
    </mxGraphModel>
  </diagram>
  <diagram id="Y43Yg3xI3_MQ4JVvt8NB" name="Docente">
    <mxGraphModel grid="0" page="1" gridSize="10" guides="1" tooltips="1" connect="1" arrows="1" fold="1" pageScale="1" pageWidth="827" pageHeight="1169" math="0" shadow="0">
      <root>
        <mxCell id="P9HeNrSZ60NZWkmwqmIn-0" />
        <mxCell id="P9HeNrSZ60NZWkmwqmIn-1" parent="P9HeNrSZ60NZWkmwqmIn-0" />
        <mxCell id="FjEqhSp6aAojGb-SxOQv-0" value="" style="rounded=0;whiteSpace=wrap;html=1;shadow=0;strokeColor=#000000;strokeWidth=1;fillColor=#FFFFFF;fontSize=11;" vertex="1" parent="P9HeNrSZ60NZWkmwqmIn-1">
          <mxGeometry x="90" y="46" width="580" height="390" as="geometry" />
        </mxCell>
        <mxCell id="FjEqhSp6aAojGb-SxOQv-1" value="&lt;font style=&quot;vertical-align: inherit&quot;&gt;&lt;font style=&quot;vertical-align: inherit&quot;&gt;&lt;font style=&quot;vertical-align: inherit&quot;&gt;&lt;font style=&quot;vertical-align: inherit&quot;&gt;&lt;font style=&quot;vertical-align: inherit&quot;&gt;&lt;font style=&quot;vertical-align: inherit&quot;&gt;Docente&lt;/font&gt;&lt;/font&gt;&lt;/font&gt;&lt;/font&gt;&lt;/font&gt;&lt;/font&gt;" style="shape=umlActor;verticalLabelPosition=bottom;verticalAlign=top;html=1;outlineConnect=0;shadow=1;" vertex="1" parent="P9HeNrSZ60NZWkmwqmIn-1">
          <mxGeometry x="17" y="200" width="30" height="60" as="geometry" />
        </mxCell>
        <mxCell id="FjEqhSp6aAojGb-SxOQv-2" value="&lt;font style=&quot;vertical-align: inherit&quot;&gt;&lt;font style=&quot;vertical-align: inherit&quot;&gt;Sistema&lt;/font&gt;&lt;/font&gt;" style="rounded=0;whiteSpace=wrap;html=1;shadow=1;" vertex="1" parent="P9HeNrSZ60NZWkmwqmIn-1">
          <mxGeometry x="699" y="205" width="110" height="50" as="geometry" />
        </mxCell>
        <mxCell id="FjEqhSp6aAojGb-SxOQv-4" value="Ingresar" style="ellipse;whiteSpace=wrap;html=1;shadow=1;strokeColor=none;strokeWidth=2;fillColor=#00D4D4;" vertex="1" parent="P9HeNrSZ60NZWkmwqmIn-1">
          <mxGeometry x="140" y="80" width="110" height="50" as="geometry" />
        </mxCell>
        <mxCell id="FjEqhSp6aAojGb-SxOQv-5" value="Horarios" style="ellipse;whiteSpace=wrap;html=1;shadow=1;strokeColor=none;strokeWidth=2;fillColor=#00D4D4;" vertex="1" parent="P9HeNrSZ60NZWkmwqmIn-1">
          <mxGeometry x="325" y="136" width="110" height="50" as="geometry" />
        </mxCell>
        <mxCell id="FjEqhSp6aAojGb-SxOQv-8" value="Seleccionar&lt;br&gt;apartado" style="ellipse;whiteSpace=wrap;html=1;shadow=1;strokeColor=none;strokeWidth=2;fillColor=#00D4D4;" vertex="1" parent="P9HeNrSZ60NZWkmwqmIn-1">
          <mxGeometry x="126" y="205" width="110" height="50" as="geometry" />
        </mxCell>
        <mxCell id="FjEqhSp6aAojGb-SxOQv-9" value="" style="endArrow=none;html=1;rounded=0;fillColor=#FF00FF;strokeColor=#000000;shadow=0;strokeWidth=2;" edge="1" parent="P9HeNrSZ60NZWkmwqmIn-1">
          <mxGeometry width="50" height="50" relative="1" as="geometry">
            <mxPoint x="50" y="200" as="sourcePoint" />
            <mxPoint x="140" y="120" as="targetPoint" />
          </mxGeometry>
        </mxCell>
        <mxCell id="FjEqhSp6aAojGb-SxOQv-10" value="" style="endArrow=none;html=1;rounded=0;fillColor=#FF00FF;strokeColor=#000000;shadow=0;strokeWidth=2;exitX=1;exitY=0.5;exitDx=0;exitDy=0;" edge="1" parent="P9HeNrSZ60NZWkmwqmIn-1" source="FjEqhSp6aAojGb-SxOQv-15">
          <mxGeometry width="50" height="50" relative="1" as="geometry">
            <mxPoint x="640" y="229.5" as="sourcePoint" />
            <mxPoint x="685" y="230" as="targetPoint" />
          </mxGeometry>
        </mxCell>
        <mxCell id="FjEqhSp6aAojGb-SxOQv-15" value="Mostrar&lt;br&gt;Apartado" style="ellipse;whiteSpace=wrap;html=1;shadow=1;strokeColor=none;strokeWidth=2;fillColor=#00D4D4;" vertex="1" parent="P9HeNrSZ60NZWkmwqmIn-1">
          <mxGeometry x="526" y="205" width="110" height="50" as="geometry" />
        </mxCell>
        <mxCell id="FjEqhSp6aAojGb-SxOQv-20" value="" style="endArrow=none;html=1;rounded=0;fillColor=#FF00FF;strokeColor=#000000;shadow=0;strokeWidth=2;" edge="1" parent="P9HeNrSZ60NZWkmwqmIn-1">
          <mxGeometry width="50" height="50" relative="1" as="geometry">
            <mxPoint x="50" y="230" as="sourcePoint" />
            <mxPoint x="120" y="229.5" as="targetPoint" />
          </mxGeometry>
        </mxCell>
        <mxCell id="FjEqhSp6aAojGb-SxOQv-22" value="&amp;lt;&amp;lt;Incluye&amp;gt;&amp;gt;" style="text;html=1;strokeColor=none;fillColor=none;align=center;verticalAlign=middle;whiteSpace=wrap;rounded=0;shadow=0;fontSize=11;" vertex="1" parent="P9HeNrSZ60NZWkmwqmIn-1">
          <mxGeometry x="275" y="190" width="60" height="30" as="geometry" />
        </mxCell>
        <mxCell id="FjEqhSp6aAojGb-SxOQv-26" value="&amp;lt;&amp;lt;Incluye&amp;gt;&amp;gt;" style="text;html=1;strokeColor=none;fillColor=none;align=center;verticalAlign=middle;whiteSpace=wrap;rounded=0;shadow=0;fontSize=11;" vertex="1" parent="P9HeNrSZ60NZWkmwqmIn-1">
          <mxGeometry x="419" y="190" width="60" height="30" as="geometry" />
        </mxCell>
        <mxCell id="FjEqhSp6aAojGb-SxOQv-29" value="Subir&amp;nbsp;&lt;br&gt;Notas" style="ellipse;whiteSpace=wrap;html=1;shadow=1;strokeColor=none;strokeWidth=2;fillColor=#00D4D4;" vertex="1" parent="P9HeNrSZ60NZWkmwqmIn-1">
          <mxGeometry x="325" y="285" width="110" height="50" as="geometry" />
        </mxCell>
        <mxCell id="FjEqhSp6aAojGb-SxOQv-32" value="&amp;lt;&amp;lt;Incluye&amp;gt;&amp;gt;" style="text;html=1;strokeColor=none;fillColor=none;align=center;verticalAlign=middle;whiteSpace=wrap;rounded=0;shadow=0;fontSize=11;" vertex="1" parent="P9HeNrSZ60NZWkmwqmIn-1">
          <mxGeometry x="277" y="260" width="60" height="30" as="geometry" />
        </mxCell>
        <mxCell id="FjEqhSp6aAojGb-SxOQv-33" value="&amp;lt;&amp;lt;Incluye&amp;gt;&amp;gt;" style="text;html=1;strokeColor=none;fillColor=none;align=center;verticalAlign=middle;whiteSpace=wrap;rounded=0;shadow=0;fontSize=11;" vertex="1" parent="P9HeNrSZ60NZWkmwqmIn-1">
          <mxGeometry x="419" y="264" width="60" height="30" as="geometry" />
        </mxCell>
        <mxCell id="BBaYxndxEE0JmGBDtz8T-0" value="" style="endArrow=classic;html=1;rounded=0;exitX=1;exitY=1;exitDx=0;exitDy=0;entryX=0;entryY=0.5;entryDx=0;entryDy=0;dashed=1;endFill=1;fillColor=#FF00FF;strokeColor=#000000;shadow=0;strokeWidth=2;" edge="1" parent="P9HeNrSZ60NZWkmwqmIn-1" source="FjEqhSp6aAojGb-SxOQv-8" target="FjEqhSp6aAojGb-SxOQv-29">
          <mxGeometry width="50" height="50" relative="1" as="geometry">
            <mxPoint x="481" y="368" as="sourcePoint" />
            <mxPoint x="481" y="286" as="targetPoint" />
          </mxGeometry>
        </mxCell>
        <mxCell id="BBaYxndxEE0JmGBDtz8T-1" value="" style="endArrow=classic;html=1;rounded=0;exitX=1;exitY=0;exitDx=0;exitDy=0;entryX=-0.02;entryY=0.38;entryDx=0;entryDy=0;dashed=1;endFill=1;fillColor=#FF00FF;strokeColor=#000000;shadow=0;strokeWidth=2;entryPerimeter=0;" edge="1" parent="P9HeNrSZ60NZWkmwqmIn-1" source="FjEqhSp6aAojGb-SxOQv-8" target="FjEqhSp6aAojGb-SxOQv-5">
          <mxGeometry width="50" height="50" relative="1" as="geometry">
            <mxPoint x="491" y="378" as="sourcePoint" />
            <mxPoint x="491" y="296" as="targetPoint" />
          </mxGeometry>
        </mxCell>
        <mxCell id="BBaYxndxEE0JmGBDtz8T-2" value="" style="endArrow=classic;html=1;rounded=0;exitX=0;exitY=0;exitDx=0;exitDy=0;entryX=1;entryY=0.5;entryDx=0;entryDy=0;dashed=1;endFill=1;fillColor=#FF00FF;strokeColor=#000000;shadow=0;strokeWidth=2;" edge="1" parent="P9HeNrSZ60NZWkmwqmIn-1" source="FjEqhSp6aAojGb-SxOQv-15" target="FjEqhSp6aAojGb-SxOQv-5">
          <mxGeometry width="50" height="50" relative="1" as="geometry">
            <mxPoint x="501" y="388" as="sourcePoint" />
            <mxPoint x="501" y="306" as="targetPoint" />
          </mxGeometry>
        </mxCell>
        <mxCell id="BBaYxndxEE0JmGBDtz8T-3" value="" style="endArrow=classic;html=1;rounded=0;exitX=0;exitY=1;exitDx=0;exitDy=0;entryX=1;entryY=0.5;entryDx=0;entryDy=0;dashed=1;endFill=1;fillColor=#FF00FF;strokeColor=#000000;shadow=0;strokeWidth=2;" edge="1" parent="P9HeNrSZ60NZWkmwqmIn-1" source="FjEqhSp6aAojGb-SxOQv-15" target="FjEqhSp6aAojGb-SxOQv-29">
          <mxGeometry width="50" height="50" relative="1" as="geometry">
            <mxPoint x="511" y="398" as="sourcePoint" />
            <mxPoint x="511" y="316" as="targetPoint" />
          </mxGeometry>
        </mxCell>
      </root>
    </mxGraphModel>
  </diagram>
  <diagram id="FP1G9BUhdjiY9-85U-_e" name="Administrador">
    <mxGraphModel grid="0" page="1" gridSize="10" guides="1" tooltips="1" connect="1" arrows="1" fold="1" pageScale="1" pageWidth="827" pageHeight="1169" math="0" shadow="0">
      <root>
        <mxCell id="0" />
        <mxCell id="1" parent="0" />
        <mxCell id="UVJlEB-SVkDox4ls2ZEu-1" value="" style="rounded=0;whiteSpace=wrap;html=1;shadow=0;strokeColor=#000000;strokeWidth=1;fillColor=#FFFFFF;" vertex="1" parent="1">
          <mxGeometry x="100" y="98" width="580" height="606" as="geometry" />
        </mxCell>
        <mxCell id="UVJlEB-SVkDox4ls2ZEu-2" value="Administrador" style="shape=umlActor;verticalLabelPosition=bottom;verticalAlign=top;html=1;outlineConnect=0;shadow=1;" vertex="1" parent="1">
          <mxGeometry x="39" y="340" width="30" height="60" as="geometry" />
        </mxCell>
        <mxCell id="UVJlEB-SVkDox4ls2ZEu-3" value="&lt;font style=&quot;vertical-align: inherit&quot;&gt;&lt;font style=&quot;vertical-align: inherit&quot;&gt;Sistema&lt;/font&gt;&lt;/font&gt;" style="rounded=0;whiteSpace=wrap;html=1;shadow=1;" vertex="1" parent="1">
          <mxGeometry x="705" y="342" width="110" height="50" as="geometry" />
        </mxCell>
        <mxCell id="UVJlEB-SVkDox4ls2ZEu-4" value="Ingresar" style="ellipse;whiteSpace=wrap;html=1;shadow=1;strokeColor=none;strokeWidth=2;fillColor=#00D4D4;" vertex="1" parent="1">
          <mxGeometry x="125" y="239" width="70" height="40" as="geometry" />
        </mxCell>
        <mxCell id="UVJlEB-SVkDox4ls2ZEu-5" value="Docentes" style="ellipse;whiteSpace=wrap;html=1;shadow=1;strokeColor=none;strokeWidth=2;fillColor=#00D4D4;" vertex="1" parent="1">
          <mxGeometry x="324" y="110" width="110" height="50" as="geometry" />
        </mxCell>
        <mxCell id="UVJlEB-SVkDox4ls2ZEu-6" value="Alumnos" style="ellipse;whiteSpace=wrap;html=1;shadow=1;strokeColor=none;strokeWidth=2;fillColor=#00D4D4;" vertex="1" parent="1">
          <mxGeometry x="326" y="172" width="110" height="50" as="geometry" />
        </mxCell>
        <mxCell id="UVJlEB-SVkDox4ls2ZEu-7" value="Seleccionar&lt;br&gt;apartado" style="ellipse;whiteSpace=wrap;html=1;shadow=1;strokeColor=none;strokeWidth=2;fillColor=#00D4D4;" vertex="1" parent="1">
          <mxGeometry x="130" y="343" width="110" height="50" as="geometry" />
        </mxCell>
        <mxCell id="UVJlEB-SVkDox4ls2ZEu-12" value="Mostrar&lt;br&gt;Apartado" style="ellipse;whiteSpace=wrap;html=1;shadow=1;strokeColor=none;strokeWidth=2;fillColor=#00D4D4;" vertex="1" parent="1">
          <mxGeometry x="531" y="342" width="110" height="50" as="geometry" />
        </mxCell>
        <mxCell id="UVJlEB-SVkDox4ls2ZEu-18" value="&lt;font style=&quot;font-size: 9px;&quot;&gt;&amp;lt;&amp;lt;Incluye&amp;gt;&amp;gt;&lt;/font&gt;" style="text;html=1;strokeColor=none;fillColor=none;align=center;verticalAlign=middle;whiteSpace=wrap;rounded=0;shadow=0;" vertex="1" parent="1">
          <mxGeometry x="220" y="160" width="50" height="30" as="geometry" />
        </mxCell>
        <mxCell id="kRN1W-_NGjJv4c9RsHB--3" value="Tipo Documento" style="ellipse;whiteSpace=wrap;html=1;shadow=1;strokeColor=none;strokeWidth=2;fillColor=#00D4D4;" vertex="1" parent="1">
          <mxGeometry x="326" y="229" width="110" height="50" as="geometry" />
        </mxCell>
        <mxCell id="kRN1W-_NGjJv4c9RsHB--5" value="Registrar docente" style="ellipse;whiteSpace=wrap;html=1;shadow=1;strokeColor=none;strokeWidth=2;fillColor=#00D4D4;" vertex="1" parent="1">
          <mxGeometry x="326" y="343" width="110" height="50" as="geometry" />
        </mxCell>
        <mxCell id="kRN1W-_NGjJv4c9RsHB--6" value="Asignaturas" style="ellipse;whiteSpace=wrap;html=1;shadow=1;strokeColor=none;strokeWidth=2;fillColor=#00D4D4;" vertex="1" parent="1">
          <mxGeometry x="326" y="400" width="110" height="50" as="geometry" />
        </mxCell>
        <mxCell id="kRN1W-_NGjJv4c9RsHB--7" value="Grados" style="ellipse;whiteSpace=wrap;html=1;shadow=1;strokeColor=none;strokeWidth=2;fillColor=#00D4D4;" vertex="1" parent="1">
          <mxGeometry x="326" y="457" width="110" height="50" as="geometry" />
        </mxCell>
        <mxCell id="kRN1W-_NGjJv4c9RsHB--8" value="Horarios" style="ellipse;whiteSpace=wrap;html=1;shadow=1;strokeColor=none;strokeWidth=2;fillColor=#00D4D4;" vertex="1" parent="1">
          <mxGeometry x="326" y="513" width="110" height="50" as="geometry" />
        </mxCell>
        <mxCell id="kRN1W-_NGjJv4c9RsHB--9" value="Periodo" style="ellipse;whiteSpace=wrap;html=1;shadow=1;strokeColor=none;strokeWidth=2;fillColor=#00D4D4;" vertex="1" parent="1">
          <mxGeometry x="326" y="569" width="110" height="50" as="geometry" />
        </mxCell>
        <mxCell id="_PwHs_3B7CCow1RmJMYV-1" value="" style="endArrow=classic;html=1;rounded=0;dashed=1;endFill=1;fillColor=#FF00FF;strokeColor=#000000;shadow=0;strokeWidth=2;entryX=0;entryY=0.5;entryDx=0;entryDy=0;exitX=1;exitY=0.5;exitDx=0;exitDy=0;" edge="1" parent="1" source="UVJlEB-SVkDox4ls2ZEu-7" target="UVJlEB-SVkDox4ls2ZEu-5">
          <mxGeometry width="50" height="50" relative="1" as="geometry">
            <mxPoint x="219.8908729652601" y="247.67766952966372" as="sourcePoint" />
            <mxPoint x="325" y="340" as="targetPoint" />
            <Array as="points">
              <mxPoint x="272" y="368" />
              <mxPoint x="272" y="135" />
            </Array>
          </mxGeometry>
        </mxCell>
        <mxCell id="ZvmtjXtRHYOiE84sjvpE-1" value="" style="endArrow=classic;html=1;rounded=0;dashed=1;endFill=1;fillColor=#FF00FF;strokeColor=#000000;shadow=0;strokeWidth=2;entryX=0;entryY=0.5;entryDx=0;entryDy=0;" edge="1" parent="1" target="BOjBvVi2R_JDzEUhTIvR-1">
          <mxGeometry width="50" height="50" relative="1" as="geometry">
            <mxPoint x="272" y="372" as="sourcePoint" />
            <mxPoint x="327.00000000000136" y="652" as="targetPoint" />
            <Array as="points">
              <mxPoint x="271" y="650" />
            </Array>
          </mxGeometry>
        </mxCell>
        <mxCell id="Ju-CgUUpvB8KnFnzydK7-2" value="" style="endArrow=classic;html=1;rounded=0;dashed=1;endFill=1;fillColor=#FF00FF;strokeColor=#000000;shadow=0;strokeWidth=2;entryX=0;entryY=0.5;entryDx=0;entryDy=0;" edge="1" parent="1">
          <mxGeometry width="50" height="50" relative="1" as="geometry">
            <mxPoint x="272" y="199" as="sourcePoint" />
            <mxPoint x="326" y="197.9999999999999" as="targetPoint" />
          </mxGeometry>
        </mxCell>
        <mxCell id="Ju-CgUUpvB8KnFnzydK7-4" value="" style="endArrow=classic;html=1;rounded=0;dashed=1;endFill=1;fillColor=#FF00FF;strokeColor=#000000;shadow=0;strokeWidth=2;entryX=0;entryY=0.5;entryDx=0;entryDy=0;" edge="1" parent="1" target="kRN1W-_NGjJv4c9RsHB--3">
          <mxGeometry width="50" height="50" relative="1" as="geometry">
            <mxPoint x="270" y="253.7" as="sourcePoint" />
            <mxPoint x="310" y="270" as="targetPoint" />
          </mxGeometry>
        </mxCell>
        <mxCell id="Ju-CgUUpvB8KnFnzydK7-6" value="" style="endArrow=classic;html=1;rounded=0;dashed=1;endFill=1;fillColor=#FF00FF;strokeColor=#000000;shadow=0;strokeWidth=2;entryX=0;entryY=0.5;entryDx=0;entryDy=0;" edge="1" parent="1">
          <mxGeometry width="50" height="50" relative="1" as="geometry">
            <mxPoint x="270" y="310" as="sourcePoint" />
            <mxPoint x="326" y="310" as="targetPoint" />
          </mxGeometry>
        </mxCell>
        <mxCell id="Ju-CgUUpvB8KnFnzydK7-7" value="" style="endArrow=classic;html=1;rounded=0;dashed=1;endFill=1;fillColor=#FF00FF;strokeColor=#000000;shadow=0;strokeWidth=2;entryX=0;entryY=0.5;entryDx=0;entryDy=0;" edge="1" parent="1" target="kRN1W-_NGjJv4c9RsHB--5">
          <mxGeometry width="50" height="50" relative="1" as="geometry">
            <mxPoint x="270" y="368" as="sourcePoint" />
            <mxPoint x="320" y="380" as="targetPoint" />
          </mxGeometry>
        </mxCell>
        <mxCell id="Ju-CgUUpvB8KnFnzydK7-8" value="" style="endArrow=classic;html=1;rounded=0;dashed=1;endFill=1;fillColor=#FF00FF;strokeColor=#000000;shadow=0;strokeWidth=2;entryX=0;entryY=0.5;entryDx=0;entryDy=0;" edge="1" parent="1" target="kRN1W-_NGjJv4c9RsHB--6">
          <mxGeometry width="50" height="50" relative="1" as="geometry">
            <mxPoint x="270" y="424.7" as="sourcePoint" />
            <mxPoint x="320" y="440" as="targetPoint" />
          </mxGeometry>
        </mxCell>
        <mxCell id="Ju-CgUUpvB8KnFnzydK7-9" value="" style="endArrow=classic;html=1;rounded=0;dashed=1;endFill=1;fillColor=#FF00FF;strokeColor=#000000;shadow=0;strokeWidth=2;entryX=0;entryY=0.5;entryDx=0;entryDy=0;" edge="1" parent="1" target="kRN1W-_NGjJv4c9RsHB--7">
          <mxGeometry width="50" height="50" relative="1" as="geometry">
            <mxPoint x="270" y="481.7" as="sourcePoint" />
            <mxPoint x="320" y="500" as="targetPoint" />
          </mxGeometry>
        </mxCell>
        <mxCell id="Ju-CgUUpvB8KnFnzydK7-10" value="" style="endArrow=classic;html=1;rounded=0;dashed=1;endFill=1;fillColor=#FF00FF;strokeColor=#000000;shadow=0;strokeWidth=2;entryX=0;entryY=0.5;entryDx=0;entryDy=0;" edge="1" parent="1" target="kRN1W-_NGjJv4c9RsHB--8">
          <mxGeometry width="50" height="50" relative="1" as="geometry">
            <mxPoint x="270" y="537.7" as="sourcePoint" />
            <mxPoint x="320" y="560" as="targetPoint" />
          </mxGeometry>
        </mxCell>
        <mxCell id="Ju-CgUUpvB8KnFnzydK7-12" value="" style="endArrow=classic;html=1;rounded=0;dashed=1;endFill=1;fillColor=#FF00FF;strokeColor=#000000;shadow=0;strokeWidth=2;entryX=1;entryY=0.5;entryDx=0;entryDy=0;exitX=0;exitY=0.5;exitDx=0;exitDy=0;" edge="1" parent="1" source="UVJlEB-SVkDox4ls2ZEu-12" target="UVJlEB-SVkDox4ls2ZEu-5">
          <mxGeometry width="50" height="50" relative="1" as="geometry">
            <mxPoint x="470" y="366" as="sourcePoint" />
            <mxPoint x="556.0000000000039" y="84" as="targetPoint" />
            <Array as="points">
              <mxPoint x="500" y="367" />
              <mxPoint x="500" y="135" />
            </Array>
          </mxGeometry>
        </mxCell>
        <mxCell id="Ju-CgUUpvB8KnFnzydK7-14" value="" style="endArrow=classic;html=1;rounded=0;dashed=1;endFill=1;fillColor=#FF00FF;strokeColor=#000000;shadow=0;strokeWidth=2;entryX=1;entryY=0.5;entryDx=0;entryDy=0;" edge="1" parent="1" target="BOjBvVi2R_JDzEUhTIvR-1">
          <mxGeometry width="50" height="50" relative="1" as="geometry">
            <mxPoint x="500" y="372" as="sourcePoint" />
            <mxPoint x="436.0000000000032" y="652" as="targetPoint" />
            <Array as="points">
              <mxPoint x="500" y="650" />
            </Array>
          </mxGeometry>
        </mxCell>
        <mxCell id="Ju-CgUUpvB8KnFnzydK7-16" value="" style="endArrow=classic;html=1;rounded=0;dashed=1;endFill=1;fillColor=#FF00FF;strokeColor=#000000;shadow=0;strokeWidth=2;entryX=1;entryY=0.5;entryDx=0;entryDy=0;" edge="1" parent="1">
          <mxGeometry width="50" height="50" relative="1" as="geometry">
            <mxPoint x="500" y="197.63" as="sourcePoint" />
            <mxPoint x="436" y="197.9999999999999" as="targetPoint" />
          </mxGeometry>
        </mxCell>
        <mxCell id="Ju-CgUUpvB8KnFnzydK7-17" value="" style="endArrow=classic;html=1;rounded=0;dashed=1;endFill=1;fillColor=#FF00FF;strokeColor=#000000;shadow=0;strokeWidth=2;entryX=1;entryY=0.5;entryDx=0;entryDy=0;" edge="1" parent="1" target="kRN1W-_NGjJv4c9RsHB--3">
          <mxGeometry width="50" height="50" relative="1" as="geometry">
            <mxPoint x="500" y="253.63" as="sourcePoint" />
            <mxPoint x="450" y="280" as="targetPoint" />
          </mxGeometry>
        </mxCell>
        <mxCell id="Ju-CgUUpvB8KnFnzydK7-18" value="" style="endArrow=classic;html=1;rounded=0;dashed=1;endFill=1;fillColor=#FF00FF;strokeColor=#000000;shadow=0;strokeWidth=2;entryX=1;entryY=0.5;entryDx=0;entryDy=0;" edge="1" parent="1">
          <mxGeometry width="50" height="50" relative="1" as="geometry">
            <mxPoint x="500" y="309.63" as="sourcePoint" />
            <mxPoint x="436" y="310" as="targetPoint" />
          </mxGeometry>
        </mxCell>
        <mxCell id="Ju-CgUUpvB8KnFnzydK7-19" value="" style="endArrow=classic;html=1;rounded=0;dashed=1;endFill=1;fillColor=#FF00FF;strokeColor=#000000;shadow=0;strokeWidth=2;entryX=1;entryY=0.5;entryDx=0;entryDy=0;" edge="1" parent="1" target="kRN1W-_NGjJv4c9RsHB--5">
          <mxGeometry width="50" height="50" relative="1" as="geometry">
            <mxPoint x="500" y="366.63" as="sourcePoint" />
            <mxPoint x="450" y="390" as="targetPoint" />
          </mxGeometry>
        </mxCell>
        <mxCell id="Ju-CgUUpvB8KnFnzydK7-20" value="" style="endArrow=classic;html=1;rounded=0;dashed=1;endFill=1;fillColor=#FF00FF;strokeColor=#000000;shadow=0;strokeWidth=2;entryX=1;entryY=0.5;entryDx=0;entryDy=0;" edge="1" parent="1" target="kRN1W-_NGjJv4c9RsHB--6">
          <mxGeometry width="50" height="50" relative="1" as="geometry">
            <mxPoint x="500" y="424.63" as="sourcePoint" />
            <mxPoint x="450" y="450" as="targetPoint" />
          </mxGeometry>
        </mxCell>
        <mxCell id="Ju-CgUUpvB8KnFnzydK7-21" value="" style="endArrow=classic;html=1;rounded=0;dashed=1;endFill=1;fillColor=#FF00FF;strokeColor=#000000;shadow=0;strokeWidth=2;entryX=1;entryY=0.5;entryDx=0;entryDy=0;" edge="1" parent="1" target="kRN1W-_NGjJv4c9RsHB--7">
          <mxGeometry width="50" height="50" relative="1" as="geometry">
            <mxPoint x="500" y="481.63" as="sourcePoint" />
            <mxPoint x="450" y="500" as="targetPoint" />
          </mxGeometry>
        </mxCell>
        <mxCell id="Ju-CgUUpvB8KnFnzydK7-22" value="" style="endArrow=classic;html=1;rounded=0;dashed=1;endFill=1;fillColor=#FF00FF;strokeColor=#000000;shadow=0;strokeWidth=2;entryX=1;entryY=0.5;entryDx=0;entryDy=0;" edge="1" parent="1" target="kRN1W-_NGjJv4c9RsHB--8">
          <mxGeometry width="50" height="50" relative="1" as="geometry">
            <mxPoint x="500" y="537.63" as="sourcePoint" />
            <mxPoint x="450" y="550" as="targetPoint" />
          </mxGeometry>
        </mxCell>
        <mxCell id="Ju-CgUUpvB8KnFnzydK7-26" value="&lt;font style=&quot;font-size: 9px;&quot;&gt;&amp;lt;&amp;lt;Incluye&amp;gt;&amp;gt;&lt;/font&gt;" style="text;html=1;strokeColor=none;fillColor=none;align=center;verticalAlign=middle;whiteSpace=wrap;rounded=0;shadow=0;" vertex="1" parent="1">
          <mxGeometry x="220" y="210" width="50" height="30" as="geometry" />
        </mxCell>
        <mxCell id="Ju-CgUUpvB8KnFnzydK7-27" value="&lt;font style=&quot;font-size: 9px;&quot;&gt;&amp;lt;&amp;lt;Incluye&amp;gt;&amp;gt;&lt;/font&gt;" style="text;html=1;strokeColor=none;fillColor=none;align=center;verticalAlign=middle;whiteSpace=wrap;rounded=0;shadow=0;" vertex="1" parent="1">
          <mxGeometry x="220" y="260" width="50" height="30" as="geometry" />
        </mxCell>
        <mxCell id="Ju-CgUUpvB8KnFnzydK7-28" value="&lt;font style=&quot;font-size: 9px;&quot;&gt;&amp;lt;&amp;lt;Incluye&amp;gt;&amp;gt;&lt;/font&gt;" style="text;html=1;strokeColor=none;fillColor=none;align=center;verticalAlign=middle;whiteSpace=wrap;rounded=0;shadow=0;" vertex="1" parent="1">
          <mxGeometry x="220" y="320" width="50" height="30" as="geometry" />
        </mxCell>
        <mxCell id="Ju-CgUUpvB8KnFnzydK7-29" value="&lt;font style=&quot;font-size: 9px;&quot;&gt;&amp;lt;&amp;lt;Incluye&amp;gt;&amp;gt;&lt;/font&gt;" style="text;html=1;strokeColor=none;fillColor=none;align=center;verticalAlign=middle;whiteSpace=wrap;rounded=0;shadow=0;" vertex="1" parent="1">
          <mxGeometry x="500" y="160" width="50" height="30" as="geometry" />
        </mxCell>
        <mxCell id="Ju-CgUUpvB8KnFnzydK7-30" value="&lt;font style=&quot;font-size: 9px;&quot;&gt;&amp;lt;&amp;lt;Incluye&amp;gt;&amp;gt;&lt;/font&gt;" style="text;html=1;strokeColor=none;fillColor=none;align=center;verticalAlign=middle;whiteSpace=wrap;rounded=0;shadow=0;" vertex="1" parent="1">
          <mxGeometry x="500" y="210" width="50" height="30" as="geometry" />
        </mxCell>
        <mxCell id="Ju-CgUUpvB8KnFnzydK7-31" value="&lt;font style=&quot;font-size: 9px;&quot;&gt;&amp;lt;&amp;lt;Incluye&amp;gt;&amp;gt;&lt;/font&gt;" style="text;html=1;strokeColor=none;fillColor=none;align=center;verticalAlign=middle;whiteSpace=wrap;rounded=0;shadow=0;" vertex="1" parent="1">
          <mxGeometry x="500" y="270" width="50" height="30" as="geometry" />
        </mxCell>
        <mxCell id="Ju-CgUUpvB8KnFnzydK7-32" value="&lt;font style=&quot;font-size: 9px;&quot;&gt;&amp;lt;&amp;lt;Incluye&amp;gt;&amp;gt;&lt;/font&gt;" style="text;html=1;strokeColor=none;fillColor=none;align=center;verticalAlign=middle;whiteSpace=wrap;rounded=0;shadow=0;" vertex="1" parent="1">
          <mxGeometry x="500" y="320" width="50" height="30" as="geometry" />
        </mxCell>
        <mxCell id="Ju-CgUUpvB8KnFnzydK7-35" value="&lt;font style=&quot;font-size: 9px;&quot;&gt;&amp;lt;&amp;lt;Incluye&amp;gt;&amp;gt;&lt;/font&gt;" style="text;html=1;strokeColor=none;fillColor=none;align=center;verticalAlign=middle;whiteSpace=wrap;rounded=0;shadow=0;" vertex="1" parent="1">
          <mxGeometry x="272" y="343" width="50" height="30" as="geometry" />
        </mxCell>
        <mxCell id="Ju-CgUUpvB8KnFnzydK7-38" value="&lt;font style=&quot;font-size: 9px;&quot;&gt;&amp;lt;&amp;lt;Incluye&amp;gt;&amp;gt;&lt;/font&gt;" style="text;html=1;strokeColor=none;fillColor=none;align=center;verticalAlign=middle;whiteSpace=wrap;rounded=0;shadow=0;" vertex="1" parent="1">
          <mxGeometry x="450" y="345" width="50" height="30" as="geometry" />
        </mxCell>
        <mxCell id="Ju-CgUUpvB8KnFnzydK7-39" value="&lt;font style=&quot;font-size: 9px;&quot;&gt;&amp;lt;&amp;lt;Incluye&amp;gt;&amp;gt;&lt;/font&gt;" style="text;html=1;strokeColor=none;fillColor=none;align=center;verticalAlign=middle;whiteSpace=wrap;rounded=0;shadow=0;" vertex="1" parent="1">
          <mxGeometry x="500" y="380" width="50" height="30" as="geometry" />
        </mxCell>
        <mxCell id="Ju-CgUUpvB8KnFnzydK7-40" value="&lt;font style=&quot;font-size: 9px;&quot;&gt;&amp;lt;&amp;lt;Incluye&amp;gt;&amp;gt;&lt;/font&gt;" style="text;html=1;strokeColor=none;fillColor=none;align=center;verticalAlign=middle;whiteSpace=wrap;rounded=0;shadow=0;" vertex="1" parent="1">
          <mxGeometry x="500" y="440" width="50" height="30" as="geometry" />
        </mxCell>
        <mxCell id="Ju-CgUUpvB8KnFnzydK7-41" value="&lt;font style=&quot;font-size: 9px;&quot;&gt;&amp;lt;&amp;lt;Incluye&amp;gt;&amp;gt;&lt;/font&gt;" style="text;html=1;strokeColor=none;fillColor=none;align=center;verticalAlign=middle;whiteSpace=wrap;rounded=0;shadow=0;" vertex="1" parent="1">
          <mxGeometry x="500" y="490" width="50" height="30" as="geometry" />
        </mxCell>
        <mxCell id="Ju-CgUUpvB8KnFnzydK7-42" value="&lt;font style=&quot;font-size: 9px;&quot;&gt;&amp;lt;&amp;lt;Incluye&amp;gt;&amp;gt;&lt;/font&gt;" style="text;html=1;strokeColor=none;fillColor=none;align=center;verticalAlign=middle;whiteSpace=wrap;rounded=0;shadow=0;" vertex="1" parent="1">
          <mxGeometry x="500" y="550" width="50" height="30" as="geometry" />
        </mxCell>
        <mxCell id="Ju-CgUUpvB8KnFnzydK7-45" value="&lt;font style=&quot;font-size: 9px;&quot;&gt;&amp;lt;&amp;lt;Incluye&amp;gt;&amp;gt;&lt;/font&gt;" style="text;html=1;strokeColor=none;fillColor=none;align=center;verticalAlign=middle;whiteSpace=wrap;rounded=0;shadow=0;" vertex="1" parent="1">
          <mxGeometry x="220" y="550" width="50" height="30" as="geometry" />
        </mxCell>
        <mxCell id="Ju-CgUUpvB8KnFnzydK7-46" value="&lt;font style=&quot;font-size: 9px;&quot;&gt;&amp;lt;&amp;lt;Incluye&amp;gt;&amp;gt;&lt;/font&gt;" style="text;html=1;strokeColor=none;fillColor=none;align=center;verticalAlign=middle;whiteSpace=wrap;rounded=0;shadow=0;" vertex="1" parent="1">
          <mxGeometry x="222" y="490" width="50" height="30" as="geometry" />
        </mxCell>
        <mxCell id="Ju-CgUUpvB8KnFnzydK7-47" value="&lt;font style=&quot;font-size: 9px;&quot;&gt;&amp;lt;&amp;lt;Incluye&amp;gt;&amp;gt;&lt;/font&gt;" style="text;html=1;strokeColor=none;fillColor=none;align=center;verticalAlign=middle;whiteSpace=wrap;rounded=0;shadow=0;" vertex="1" parent="1">
          <mxGeometry x="220" y="440" width="50" height="30" as="geometry" />
        </mxCell>
        <mxCell id="Ju-CgUUpvB8KnFnzydK7-48" value="&lt;font style=&quot;font-size: 9px;&quot;&gt;&amp;lt;&amp;lt;Incluye&amp;gt;&amp;gt;&lt;/font&gt;" style="text;html=1;strokeColor=none;fillColor=none;align=center;verticalAlign=middle;whiteSpace=wrap;rounded=0;shadow=0;" vertex="1" parent="1">
          <mxGeometry x="222" y="380" width="50" height="30" as="geometry" />
        </mxCell>
        <mxCell id="n0OkwWHUfInE2giiPUfi-1" value="Registrar alumno" style="ellipse;whiteSpace=wrap;html=1;shadow=1;strokeColor=none;strokeWidth=2;fillColor=#00D4D4;" vertex="1" parent="1">
          <mxGeometry x="324" y="283" width="110" height="50" as="geometry" />
        </mxCell>
        <mxCell id="BOjBvVi2R_JDzEUhTIvR-1" value="Curso" style="ellipse;whiteSpace=wrap;html=1;shadow=1;strokeColor=none;strokeWidth=2;fillColor=#00D4D4;" vertex="1" parent="1">
          <mxGeometry x="328" y="625" width="110" height="50" as="geometry" />
        </mxCell>
        <mxCell id="BOjBvVi2R_JDzEUhTIvR-2" value="" style="endArrow=classic;html=1;rounded=0;dashed=1;endFill=1;fillColor=#FF00FF;strokeColor=#000000;shadow=0;strokeWidth=2;entryX=0;entryY=0.5;entryDx=0;entryDy=0;" edge="1" parent="1" target="kRN1W-_NGjJv4c9RsHB--9">
          <mxGeometry width="50" height="50" relative="1" as="geometry">
            <mxPoint x="272" y="593.5" as="sourcePoint" />
            <mxPoint x="328" y="593.8" as="targetPoint" />
          </mxGeometry>
        </mxCell>
        <mxCell id="BOjBvVi2R_JDzEUhTIvR-3" value="" style="endArrow=classic;html=1;rounded=0;dashed=1;endFill=1;fillColor=#FF00FF;strokeColor=#000000;shadow=0;strokeWidth=2;entryX=1;entryY=0.5;entryDx=0;entryDy=0;" edge="1" parent="1" target="kRN1W-_NGjJv4c9RsHB--9">
          <mxGeometry width="50" height="50" relative="1" as="geometry">
            <mxPoint x="500" y="593.5" as="sourcePoint" />
            <mxPoint x="436" y="593.87" as="targetPoint" />
          </mxGeometry>
        </mxCell>
        <mxCell id="xVwpVp_zYXA3dMXrOj6u-1" value="" style="endArrow=none;html=1;rounded=0;fillColor=#FF00FF;strokeColor=#000000;shadow=0;strokeWidth=2;entryX=0;entryY=0.5;entryDx=0;entryDy=0;" edge="1" parent="1" target="UVJlEB-SVkDox4ls2ZEu-7">
          <mxGeometry width="50" height="50" relative="1" as="geometry">
            <mxPoint x="72" y="368" as="sourcePoint" />
            <mxPoint x="89" y="467" as="targetPoint" />
          </mxGeometry>
        </mxCell>
        <mxCell id="xVwpVp_zYXA3dMXrOj6u-2" value="" style="endArrow=none;html=1;rounded=0;fillColor=#FF00FF;strokeColor=#000000;shadow=0;strokeWidth=2;entryX=0;entryY=0.5;entryDx=0;entryDy=0;" edge="1" parent="1" target="UVJlEB-SVkDox4ls2ZEu-4">
          <mxGeometry width="50" height="50" relative="1" as="geometry">
            <mxPoint x="73" y="340" as="sourcePoint" />
            <mxPoint x="130" y="239.5" as="targetPoint" />
          </mxGeometry>
        </mxCell>
        <mxCell id="xVwpVp_zYXA3dMXrOj6u-3" value="" style="endArrow=none;html=1;rounded=0;fillColor=#FF00FF;strokeColor=#000000;shadow=0;strokeWidth=2;entryX=0;entryY=0.5;entryDx=0;entryDy=0;exitX=1;exitY=0.5;exitDx=0;exitDy=0;" edge="1" parent="1" source="UVJlEB-SVkDox4ls2ZEu-12" target="UVJlEB-SVkDox4ls2ZEu-3">
          <mxGeometry width="50" height="50" relative="1" as="geometry">
            <mxPoint x="70" y="250" as="sourcePoint" />
            <mxPoint x="140" y="249.5" as="targetPoint" />
          </mxGeometry>
        </mxCell>
      </root>
    </mxGraphModel>
  </diagram>
  <diagram id="QNkC1ge3dGDeZ2Nxm4oQ" name="Apartado ayuda">
    <mxGraphModel grid="0" page="1" gridSize="10" guides="1" tooltips="1" connect="1" arrows="1" fold="1" pageScale="1" pageWidth="827" pageHeight="1169" math="0" shadow="0">
      <root>
        <mxCell id="KzhkF-NpjVV3jfhNECun-0" />
        <mxCell id="KzhkF-NpjVV3jfhNECun-1" parent="KzhkF-NpjVV3jfhNECun-0" />
        <mxCell id="_Z5oOSNoLFesS2Su_DIn-0" value="" style="rounded=0;whiteSpace=wrap;html=1;shadow=0;strokeColor=#000000;strokeWidth=1;fillColor=#FFFFFF;" vertex="1" parent="KzhkF-NpjVV3jfhNECun-1">
          <mxGeometry x="86" y="68" width="580" height="296" as="geometry" />
        </mxCell>
        <mxCell id="_Z5oOSNoLFesS2Su_DIn-1" value="&lt;font style=&quot;vertical-align: inherit&quot;&gt;&lt;font style=&quot;vertical-align: inherit&quot;&gt;&lt;font style=&quot;vertical-align: inherit&quot;&gt;&lt;font style=&quot;vertical-align: inherit&quot;&gt;&lt;font style=&quot;vertical-align: inherit&quot;&gt;&lt;font style=&quot;vertical-align: inherit&quot;&gt;Usuario&lt;/font&gt;&lt;/font&gt;&lt;/font&gt;&lt;/font&gt;&lt;/font&gt;&lt;/font&gt;" style="shape=umlActor;verticalLabelPosition=bottom;verticalAlign=top;html=1;outlineConnect=0;shadow=1;" vertex="1" parent="KzhkF-NpjVV3jfhNECun-1">
          <mxGeometry x="17" y="200" width="30" height="60" as="geometry" />
        </mxCell>
        <mxCell id="_Z5oOSNoLFesS2Su_DIn-2" value="&lt;font style=&quot;vertical-align: inherit&quot;&gt;&lt;font style=&quot;vertical-align: inherit&quot;&gt;Sistema&lt;/font&gt;&lt;/font&gt;" style="rounded=0;whiteSpace=wrap;html=1;shadow=1;" vertex="1" parent="KzhkF-NpjVV3jfhNECun-1">
          <mxGeometry x="700" y="205" width="110" height="50" as="geometry" />
        </mxCell>
        <mxCell id="_Z5oOSNoLFesS2Su_DIn-4" value="Ingresar" style="ellipse;whiteSpace=wrap;html=1;shadow=1;strokeColor=none;strokeWidth=2;fillColor=#00D4D4;" vertex="1" parent="KzhkF-NpjVV3jfhNECun-1">
          <mxGeometry x="140" y="80" width="110" height="50" as="geometry" />
        </mxCell>
        <mxCell id="_Z5oOSNoLFesS2Su_DIn-5" value="Preguntas frecuentes" style="ellipse;whiteSpace=wrap;html=1;shadow=1;strokeColor=none;strokeWidth=2;fillColor=#00D4D4;" vertex="1" parent="KzhkF-NpjVV3jfhNECun-1">
          <mxGeometry x="329" y="205" width="110" height="50" as="geometry" />
        </mxCell>
        <mxCell id="_Z5oOSNoLFesS2Su_DIn-8" value="Seleccionar&lt;br&gt;apartado" style="ellipse;whiteSpace=wrap;html=1;shadow=1;strokeColor=none;strokeWidth=2;fillColor=#00D4D4;" vertex="1" parent="KzhkF-NpjVV3jfhNECun-1">
          <mxGeometry x="126" y="205" width="110" height="50" as="geometry" />
        </mxCell>
        <mxCell id="_Z5oOSNoLFesS2Su_DIn-9" value="" style="endArrow=none;html=1;rounded=0;fillColor=#FF00FF;strokeColor=#000000;shadow=0;strokeWidth=2;" edge="1" parent="KzhkF-NpjVV3jfhNECun-1">
          <mxGeometry width="50" height="50" relative="1" as="geometry">
            <mxPoint x="50" y="200" as="sourcePoint" />
            <mxPoint x="140" y="120" as="targetPoint" />
          </mxGeometry>
        </mxCell>
        <mxCell id="_Z5oOSNoLFesS2Su_DIn-10" value="" style="endArrow=none;html=1;rounded=0;fillColor=#FF00FF;strokeColor=#000000;shadow=0;strokeWidth=2;exitX=1;exitY=0.5;exitDx=0;exitDy=0;" edge="1" parent="KzhkF-NpjVV3jfhNECun-1" source="_Z5oOSNoLFesS2Su_DIn-15">
          <mxGeometry width="50" height="50" relative="1" as="geometry">
            <mxPoint x="640" y="229.5" as="sourcePoint" />
            <mxPoint x="700" y="230" as="targetPoint" />
          </mxGeometry>
        </mxCell>
        <mxCell id="_Z5oOSNoLFesS2Su_DIn-12" value="" style="endArrow=classic;html=1;rounded=0;dashed=1;endFill=1;fillColor=#FF00FF;strokeColor=#000000;shadow=0;strokeWidth=2;entryX=0;entryY=0.5;entryDx=0;entryDy=0;exitX=1;exitY=0.5;exitDx=0;exitDy=0;" edge="1" parent="KzhkF-NpjVV3jfhNECun-1" source="_Z5oOSNoLFesS2Su_DIn-8" target="_Z5oOSNoLFesS2Su_DIn-5">
          <mxGeometry width="50" height="50" relative="1" as="geometry">
            <mxPoint x="290" y="240" as="sourcePoint" />
            <mxPoint x="362" y="135" as="targetPoint" />
          </mxGeometry>
        </mxCell>
        <mxCell id="_Z5oOSNoLFesS2Su_DIn-15" value="Mostrar&lt;br&gt;Apartado" style="ellipse;whiteSpace=wrap;html=1;shadow=1;strokeColor=none;strokeWidth=2;fillColor=#00D4D4;" vertex="1" parent="KzhkF-NpjVV3jfhNECun-1">
          <mxGeometry x="524" y="205" width="110" height="50" as="geometry" />
        </mxCell>
        <mxCell id="_Z5oOSNoLFesS2Su_DIn-16" value="" style="endArrow=classic;html=1;rounded=0;dashed=1;endFill=1;fillColor=#FF00FF;strokeColor=#000000;shadow=0;strokeWidth=2;entryX=1;entryY=0.5;entryDx=0;entryDy=0;exitX=0;exitY=0.5;exitDx=0;exitDy=0;" edge="1" parent="KzhkF-NpjVV3jfhNECun-1" source="_Z5oOSNoLFesS2Su_DIn-15" target="_Z5oOSNoLFesS2Su_DIn-5">
          <mxGeometry width="50" height="50" relative="1" as="geometry">
            <mxPoint x="269.01" y="249" as="sourcePoint" />
            <mxPoint x="362" y="275" as="targetPoint" />
          </mxGeometry>
        </mxCell>
        <mxCell id="_Z5oOSNoLFesS2Su_DIn-20" value="" style="endArrow=none;html=1;rounded=0;fillColor=#FF00FF;strokeColor=#000000;shadow=0;strokeWidth=2;" edge="1" parent="KzhkF-NpjVV3jfhNECun-1">
          <mxGeometry width="50" height="50" relative="1" as="geometry">
            <mxPoint x="50" y="230" as="sourcePoint" />
            <mxPoint x="120" y="229.5" as="targetPoint" />
          </mxGeometry>
        </mxCell>
        <mxCell id="_Z5oOSNoLFesS2Su_DIn-22" value="&amp;lt;&amp;lt;Incluye&amp;gt;&amp;gt;" style="text;html=1;strokeColor=none;fillColor=none;align=center;verticalAlign=middle;whiteSpace=wrap;rounded=0;shadow=0;" vertex="1" parent="KzhkF-NpjVV3jfhNECun-1">
          <mxGeometry x="250" y="205" width="60" height="30" as="geometry" />
        </mxCell>
        <mxCell id="_Z5oOSNoLFesS2Su_DIn-26" value="&amp;lt;&amp;lt;Incluye&amp;gt;&amp;gt;" style="text;html=1;strokeColor=none;fillColor=none;align=center;verticalAlign=middle;whiteSpace=wrap;rounded=0;shadow=0;" vertex="1" parent="KzhkF-NpjVV3jfhNECun-1">
          <mxGeometry x="459" y="205" width="60" height="30" as="geometry" />
        </mxCell>
      </root>
    </mxGraphModel>
  </diagram>
</mxfile>
